<svg xmlns="http://www.w3.org/2000/svg" xml:space="preserve" viewBox="0 0 6615.377 828.94">
  <defs>
    <clipPath id="b" clipPathUnits="userSpaceOnUse">
      <path d="M0 0h29700v10000H0Z"/>
    </clipPath>
    <clipPath id="a" clipPathUnits="userSpaceOnUse">
      <path d="M0 0h29700v10000H0Z"/>
    </clipPath>
    <clipPath id="d" clipPathUnits="userSpaceOnUse">
      <path d="M0 0h29700v10000H0Z"/>
    </clipPath>
    <clipPath id="c" clipPathUnits="userSpaceOnUse">
      <path d="M0 0h29700v10000H0Z"/>
    </clipPath>
    <clipPath id="f" clipPathUnits="userSpaceOnUse">
      <path d="M0 0h29700v10000H0Z"/>
    </clipPath>
    <clipPath id="e" clipPathUnits="userSpaceOnUse">
      <path d="M0 0h29700v10000H0Z"/>
    </clipPath>
    <clipPath id="h" clipPathUnits="userSpaceOnUse">
      <path d="M0 0h29700v10000H0Z"/>
    </clipPath>
    <clipPath id="g" clipPathUnits="userSpaceOnUse">
      <path d="M0 0h29700v10000H0Z"/>
    </clipPath>
  </defs>
  <path fill="none" d="M2348 3434h4705v3133H2348Z" class="BoundingBox" clip-path="url(#a)" transform="matrix(.26458 0 0 .26458 -621.242 -908.58)"/>
  <path fill="#d20a11" fill-rule="evenodd" d="m3970 5590 459-1180h1004l-230 591h1239l610-1567H2716l475 976h609l-792 469-659 1687h3485l381-976z" clip-path="url(#b)" transform="matrix(.26458 0 0 .26458 -621.242 -908.58)"/>
  <path fill="none" d="M18900 3434h4704v3133h-4704z" class="BoundingBox" clip-path="url(#c)" transform="matrix(.26458 0 0 .26458 -621.242 -908.58)"/>
  <path fill="#d20a11" fill-rule="evenodd" d="m22364 3434-543 1394h-1004l544-1394h-1240l-1221 3132h1239l263-675 1217-544-476 1219h1240l1220-3132z" clip-path="url(#d)" transform="matrix(.26458 0 0 .26458 -621.242 -908.58)"/>
  <path fill="none" d="M6195 3434h13563v3133H6195Z" class="BoundingBox" clip-path="url(#e)" transform="matrix(.26458 0 0 .26458 -621.242 -908.58)"/>
  <path fill="#d20a11" fill-rule="evenodd" d="M17849 5151h-726l611-741h403zM9765 3434 8106 4844l550-1410H7417L6195 6566h1240l1654-1396-544 1396h1238l1035-2656 325 500h781l-1781 2156h1426l1781-2156h403l-840 2156h1239l1041-2671 334 515h781l-1781 2156h1427l846-1024 658 612-160 412h1238l1221-3132z" clip-path="url(#f)" transform="matrix(.26458 0 0 .26458 -621.242 -908.58)"/>
  <path fill="none" d="M23283 3434h4068v3133h-4068z" class="BoundingBox" clip-path="url(#g)" transform="matrix(.26458 0 0 .26458 -621.242 -908.58)"/>
  <path fill="#d20a11" fill-rule="evenodd" d="m26970 4410 380-976h-3482l-380 976h1679l-792 469-277 711h-433l-381 976h2153l381-976h-481l459-1180z" clip-path="url(#h)" transform="matrix(.26458 0 0 .26458 -621.242 -908.58)"/>
</svg>
